<?xml version="1.0" encoding="utf-8"?>
<!-- Generator: Adobe Illustrator 24.1.0, SVG Export Plug-In . SVG Version: 6.00 Build 0)  -->
<svg version="1.1" id="Layer_1" xmlns="http://www.w3.org/2000/svg" xmlns:xlink="http://www.w3.org/1999/xlink" x="0px" y="0px"
	 viewBox="0 0 583.5 300" style="enable-background:new 0 0 583.5 300;" xml:space="preserve">
<style type="text/css">
	.st0{fill:#DEE3E8;}
	.st1{fill:#2A85BB;}
</style>
<path class="st0" d="M479.2,45.4l-8.9,24.4c31.8,11.3,54.6,41.7,54.6,77.4c0,45.4-36.8,82.1-82.1,82.1c-45.4,0-82.1-36.8-82.1-82.1
	c0-35.3,22.3-65.5,53.6-77l-8.9-24.4c-41.3,15.2-70.7,54.9-70.7,101.4c0,59.7,48.4,108.1,108.1,108.1S551,206.9,551,147.2
	C551,100.3,521,60.3,479.2,45.4z"/>
<g>
	<g>
		<path class="st1" d="M154.9,123.3c-3.2-7.4-7.7-14-13.3-19.5c-5.6-5.6-12.1-10-19.5-13.2c-7.4-3.3-15.5-4.9-24-4.9
			S81.5,87.3,74,90.6c-7.5,3.2-14.1,7.7-19.6,13.3c-5.6,5.6-10,12.2-13.2,19.6c-3.2,7.4-4.8,15.5-4.8,24.2v107.7h29.9V200
			c3.6,2.2,7.5,4,11.5,5.5c6.4,2.3,13.2,3.5,20.3,3.5c8.5,0,16.6-1.7,24-4.9s14-7.7,19.5-13.3s10-12.1,13.3-19.5s4.9-15.5,4.9-24
			S158.2,130.7,154.9,123.3 M129.9,147.3c0,4.3-0.9,8.4-2.5,12.2c-1.7,3.9-4,7.3-6.9,10.2s-6.3,5.2-10.2,6.9
			c-7.7,3.4-16.9,3.3-24.5,0.1c-3.9-1.6-7.3-3.9-10.1-6.8c-2.9-2.9-5.2-6.3-6.9-10.2c-1.7-3.8-2.5-7.9-2.5-12.4
			c0-4.3,0.8-8.4,2.5-12.3c1.6-3.9,3.9-7.3,6.8-10.1c2.9-2.9,6.3-5.2,10.2-6.9c3.8-1.7,8-2.5,12.4-2.5c4.3,0,8.4,0.9,12.2,2.5
			c3.9,1.7,7.3,4,10.2,6.9s5.2,6.3,6.9,10.2C129.1,138.9,129.9,143,129.9,147.3"/>
	</g>
	<path class="st1" d="M470.6,163.9l-2.3,2.9c-2.9,3.7-6.6,6.7-10.9,8.9c-7.9,4.1-18.1,4.5-26.5,0.8c-3.9-1.7-7.3-4-10.2-6.9
		c-2.9-2.9-5.2-6.3-6.8-10.1c-1.6-3.8-2.5-7.9-2.5-12.2s0.8-8.4,2.5-12.2c1.6-3.9,3.9-7.3,6.8-10.1c2.9-2.9,6.3-5.1,10.2-6.8
		c8.4-3.6,18.6-3.2,26.6,0.8c4.3,2.2,8,5.2,10.8,9l2.2,3l23.6-18.4l-2.2-2.9c-5.6-7.4-12.7-13.3-21.1-17.5s-17.7-6.4-27.6-6.4
		c-8.4,0-16.4,1.6-23.9,4.8c-7.4,3.2-14.1,7.6-19.7,13.2s-10.1,12.2-13.3,19.7c-3.2,7.5-4.9,15.5-4.9,23.9c0,8.5,1.6,16.7,4.9,24.1
		c3.2,7.4,7.7,14.1,13.3,19.7c5.6,5.6,12.3,10,19.7,13.2c7.5,3.2,15.5,4.8,23.9,4.8c9.9,0,19.3-2.2,27.7-6.5
		c8.4-4.3,15.5-10.2,21.1-17.4l2.2-2.9L470.6,163.9z"/>
	<path class="st1" d="M357.4,113.4c-4.4-7.9-10.3-14.3-17.6-19.1c-4.2-2.8-8.9-5-14-6.6c-10.2-3.1-21.6-3.1-31.7,0
		c-5,1.6-9.8,3.8-14.3,6.6c-2,1.4-3.8,2.9-5.6,4.5c-1.2,1.1-2.4,2.2-3.5,3.4c-0.5-0.6-1.1-1-1.6-1.5c-2.3-2.3-4.8-4.5-7.5-6.4
		c-2.4-1.5-4.9-2.9-7.4-4c-2.2-1-4.4-1.9-6.8-2.6c-5.1-1.6-10.5-2.3-15.9-2.3s-10.8,0.8-15.9,2.3c-1.4,0.4-2.8,0.9-4.2,1.5
		c-0.2,0.1-0.4,0.2-0.7,0.3c-1,0.4-2,0.8-3,1.3c-0.2,0.1-0.4,0.2-0.7,0.3v0.1c-1.9,1-3.7,2-5.5,3.2c-7.3,4.8-13.2,11.3-17.6,19.1
		c-4.4,7.9-6.6,16.6-6.6,26v68.9l-0.2,0.7h0.2H207h0.2v-69.6c0-3.3,0.6-6.4,1.9-9.3c1.3-2.9,3-5.5,5.3-7.7c2.2-2.2,4.8-4,7.8-5.3
		c0.8-0.3,1.6-0.6,2.4-0.9c2.2-0.7,4.6-1,6.9-1c2.3,0,4.6,0.3,6.9,1c0.8,0.2,1.7,0.5,2.4,0.9c2.9,1.3,5.5,3,7.7,5.3
		c2.2,2.2,4,4.8,5.3,7.8c1.2,2.9,1.9,6,1.9,9.3V209h0.2h19.7h10v-69.6c0-3.3,0.6-6.4,1.9-9.3c1.3-2.9,3-5.5,5.3-7.7
		c2.2-2.2,4.8-4,7.8-5.2c5.9-2.5,12.9-2.5,18.7,0c2.9,1.3,5.5,3,7.7,5.3c2.2,2.2,4,4.8,5.3,7.7s1.9,6,1.9,9.3V209h29.9v-69.6
		C364,130.1,361.8,121.3,357.4,113.4"/>
</g>
</svg>
